<?xml version="1.0" standalone="no"?>
<!DOCTYPE svg PUBLIC "-//W3C//DTD SVG 20010904//EN"
 "http://www.w3.org/TR/2001/REC-SVG-20010904/DTD/svg10.dtd">
<svg version="1.0" xmlns="http://www.w3.org/2000/svg"
 width="640.000000pt" height="640.000000pt" viewBox="0 0 640.000000 640.000000"
 preserveAspectRatio="xMidYMid meet">
<metadata>
Created by potrace 1.11, written by Peter Selinger 2001-2013
</metadata>
<g transform="translate(0.000000,640.000000) scale(0.100000,-0.100000)"
fill="#000000" stroke="none">
<path d="M3050 5560 c-50 -7 -241 -42 -300 -55 -14 -3 -35 -8 -47 -11 -12 -2
-34 -9 -48 -14 -14 -5 -25 -8 -25 -5 0 12 -283 -95 -395 -150 -112 -55 -317
-179 -361 -218 -7 -7 -19 -16 -26 -22 -284 -220 -540 -529 -697 -843 -64 -128
-140 -335 -166 -452 -2 -8 -6 -26 -9 -40 -6 -24 -10 -46 -22 -116 -24 -142
-32 -270 -29 -459 4 -273 25 -429 90 -652 153 -531 565 -1047 1085 -1361 73
-45 274 -142 292 -142 8 0 18 -4 24 -9 9 -9 175 -65 244 -82 95 -24 293 -60
392 -70 145 -15 475 -6 583 16 44 9 96 18 115 21 19 2 87 18 150 34 475 120
910 404 1235 805 136 167 219 304 351 575 18 38 93 265 99 302 3 18 10 47 15
63 12 38 30 155 49 310 8 67 6 444 -2 495 -3 14 -8 46 -11 70 -6 43 -9 62 -21
120 -2 14 -7 39 -10 55 -3 17 -12 55 -20 85 -9 30 -17 62 -19 70 -17 70 -88
248 -140 355 -144 294 -400 611 -662 821 -126 101 -277 195 -439 274 -247 121
-426 175 -740 225 -60 10 -472 13 -535 5z"/>
</g>
</svg>
